<?xml version="1.0" encoding="UTF-8" standalone="no"?>
<!-- Created with Inkscape (http://www.inkscape.org/) -->

<svg
        width="40mm"
        height="40mm"
        viewBox="0 0 40 40"
        version="1.1"
        id="svg1"
        xml:space="preserve"
        xmlns="http://www.w3.org/2000/svg"
><defs
     id="defs1" /><g
     id="layer1"><path
       style="fill:#f26f5b;stroke:none;stroke-width:0.319402"
       d="m 15.181108,26.855647 c 0.412722,-0.01814 0.859996,-0.165921 1.267627,-0.03364 0.460521,0.149594 0.798356,0.6024 1.183119,0.878597 0.869345,0.62406 1.859873,1.299371 2.873286,1.661352 1.608835,0.574654 3.318384,0.639057 4.986002,0.330973 0.616789,-0.113953 1.949994,-0.896338 2.511126,-0.655268 0.293329,0.126009 1.101184,0.774705 1.072792,1.118237 -0.04566,0.552495 -0.599055,0.754719 -0.155187,1.347508 0.469636,0.627216 1.263295,1.027143 1.796458,1.609375 0.803346,0.877278 1.646479,1.715785 2.465155,2.57836 1.370601,1.444089 2.584222,3.057018 4.647901,1.776242 0.415683,-0.257991 0.798655,-0.609933 1.119348,-0.977915 0.540185,-0.619839 1.11673,-1.494149 0.965458,-2.362912 -0.124573,-0.715441 -0.781312,-1.272034 -1.254391,-1.778003 -1.056669,-1.130128 -2.210812,-2.190077 -3.203429,-3.377011 -0.442976,-0.529693 -0.892029,-1.051775 -1.305188,-1.605661 -0.117695,-0.157757 -0.380746,-0.430571 -0.328252,-0.649202 0.06342,-0.264113 0.672729,-0.225789 0.879647,-0.257839 0.798618,-0.123704 1.516562,-0.607612 2.112389,-1.13435 2.347945,-2.075663 3.542086,-4.695499 3.090947,-7.84611 -0.471644,-3.293784 -3.112626,-6.002976 -6.301947,-6.882748 -0.775906,-0.214035 -1.647193,-0.395826 -2.450743,-0.453906 -0.321563,-0.02343 -0.785662,0.184668 -1.072071,-0.0064 C 29.766585,9.9256125 29.667463,9.1994594 29.546394,8.8583495 29.260057,8.0516699 28.827618,7.2568919 28.30915,6.5766223 25.903647,3.4204259 22.344341,1.7879233 18.392446,2.1055623 15.111135,2.3692977 12.135968,4.4862866 10.387355,7.1681789 9.9711504,7.8065222 9.5801277,8.481901 9.3098064,9.1963829 9.1724659,9.5594065 9.0868937,10.231663 8.7953874,10.497202 c -0.3267099,0.2976 -1.5332711,0.04142 -1.980602,0.05257 -1.0131893,0.02532 -1.9995499,0.481743 -2.8732879,0.960242 -4.07513261,2.231739 -5.2382239,8.454282 -2.3139412,12.052826 2.0143377,2.478792 4.5452775,3.076271 7.5534661,3.207995 m 6.1691186,-1.855861 c -1.782214,0.424312 -4.014077,0.08288 -5.8310848,0.0033 -1.3212212,-0.05786 -2.5546601,0.118677 -3.8028812,-0.43415 -3.441316,-1.524163 -4.75078281,-5.51785 -3.253641,-8.865109 0.7655414,-1.71157 2.4613678,-3.271245 4.4367597,-3.295506 0.7660554,-0.0094 1.4471958,0.04917 2.19722,0.180624 0.2807735,0.04921 0.6477471,0.225033 0.902793,0.02041 0.4878183,-0.391466 0.5484803,-1.9631 0.7776613,-2.5675143 0.504758,-1.3311874 1.447595,-2.5077391 2.400145,-3.5460283 3.504015,-3.819409 9.964505,-3.2734373 13.115701,0.6727408 0.839455,1.051234 1.501791,2.2112806 1.986795,3.4648478 0.179717,0.464474 0.156246,1.489905 0.534244,1.808194 0.341745,0.287774 0.864329,0.05658 1.240762,-0.006 0.917908,-0.15292 1.869226,-0.139011 2.788781,-0.0098 3.498539,0.491981 5.37922,4.012668 5.236195,7.250056 -0.112592,2.548728 -2.299857,5.200989 -4.898165,5.327293 -0.406386,0.01965 -1.024018,0.227566 -1.408475,0.03024 -0.305726,-0.156926 -0.0087,-0.59023 0.08704,-0.794094 0.39597,-0.842026 0.597476,-1.617683 0.705736,-2.535254 0.317367,-2.68986 -0.89083,-5.21201 -2.619828,-7.183219 -4.252798,-4.8486557 -12.060327,-3.652303 -14.738704,2.19714 -0.897924,1.961027 -1.196604,4.30473 -0.673395,6.422649 0.165034,0.668043 0.687253,1.189795 0.816329,1.859184 M 34.111012,5.478046 c -0.829512,-0.1997858 -1.9791,0.1597606 -1.313537,1.248325 0.262526,0.429377 0.762505,0.1220031 1.10787,0.3596976 0.562999,0.3874583 0.02835,1.6527194 1.215137,1.2701027 0.156888,-0.05057 0.278703,-0.1257827 0.352819,-0.2775685 0.135723,-0.2779843 -0.0022,-0.7172221 0.212825,-0.943869 0.526235,-0.5542337 1.56,0.089537 1.409715,-1.2328062 -0.09385,-0.8256945 -0.962823,-0.2014867 -1.328205,-0.6209688 -0.273714,-0.31423 0.0016,-0.7928202 -0.22235,-1.1183698 -0.237543,-0.3451086 -1.020163,-0.2706141 -1.22668,0.067162 -0.211578,0.3460158 -0.115011,0.8592756 -0.207609,1.2483288 M 22.026283,12.942273 c 2.619874,-0.424849 5.717132,0.811544 7.300792,2.930347 2.566877,3.434279 2.128577,9.156767 -1.892247,11.343503 -0.746014,0.405721 -1.522745,0.7462 -2.366241,0.882773 -3.530498,0.571623 -7.337694,-1.424239 -8.665247,-4.789527 -1.662289,-4.213833 1.023984,-9.621305 5.622943,-10.367096 m 0.676067,1.36055 c -0.894444,0.118867 -1.660925,0.417634 -2.450744,0.858256 -0.712347,0.397398 -1.33097,0.976932 -1.798284,1.641135 -3.032541,4.310188 0.405248,10.69302 5.854688,10.040923 4.158932,-0.497669 6.36085,-5.261987 4.724912,-8.942313 -0.73776,-1.659723 -2.124219,-2.687584 -3.795318,-3.263747 -0.811661,-0.279836 -1.674921,-0.448596 -2.535254,-0.334261 m 4.140914,2.245867 -0.253531,0.338041 c 0.450834,1.044623 1.316822,1.846787 1.436644,3.042308 h 0.08451 v -0.506805 h 0.08451 c 0.503489,2.043742 -0.388222,4.622072 -2.450744,5.496836 -0.734653,0.311584 -1.748413,0.250053 -2.535254,0.249751 -1.403358,-6.39e-4 -2.577585,-0.18875 -3.492825,-1.352134 -0.975205,-1.239643 -1.369758,-2.761761 -1.155127,-4.309942 0.08052,-0.580842 0.202003,-1.392344 0.760575,-1.690167 v 0.591556 c 0.769872,-2.219935 2.934993,-2.965375 5.15502,-2.673169 0.862968,0.113613 1.580035,0.59096 2.366233,0.813986 m -2.704267,-0.760577 v 0.08451 l 0.338041,0.08451 -0.338041,-0.16902 m -4.647968,2.873287 0.08451,0.08451 -0.08451,-0.08451 m 8.591697,0.478881 -0.02835,0.05635 0.02835,-0.05635 m 1.971538,7.468048 c 0.345109,0.03326 1.379358,1.11476 1.457968,1.447854 0.0853,0.36155 -0.604853,0.965424 -0.950593,0.949746 -0.4634,-0.02116 -1.368623,-1.110644 -1.373457,-1.55565 -0.0036,-0.335735 0.520505,-0.875236 0.866082,-0.84195 m 3.465173,2.278598 c 0.733708,1.500525 2.158647,2.608206 3.299157,3.802881 0.404787,0.424006 1.099442,0.951058 1.300225,1.521475 0.242419,0.688732 -1.248933,1.968427 -1.895111,1.815107 -0.487881,-0.115767 -0.858528,-0.568981 -1.218985,-0.885838 -0.967748,-0.850704 -1.939404,-1.788824 -2.752913,-2.788717 -0.227679,-0.279874 -1.081108,-0.830007 -1.081138,-1.187422 -1.5e-5,-0.264982 0.389205,-0.500451 0.549959,-0.675155 0.515524,-0.56024 1.056367,-1.349938 1.798806,-1.602331 m -1.0141,2.366234 c 0.705486,1.001529 2.139927,3.211789 3.380337,3.549358 l -0.08451,0.25353 0.338041,0.169021 0.253531,-0.253531 c -1.572004,-0.795889 -2.322414,-2.906517 -3.887388,-3.718375 m 3.943725,3.915572 0.05635,0.02835 -0.05635,-0.02835 m 0.197178,0.478877 0.08451,0.08451 -0.08451,-0.08451"
       id="path2" /></g></svg>
