<?xml version="1.0" encoding="UTF-8" standalone="no"?>
<!-- Created with Inkscape (http://www.inkscape.org/) -->

<svg
        width="40mm"
        height="40mm"
        viewBox="0 0 40.000001 40"
        version="1.1"
        id="svg2"
        xml:space="preserve"
        xmlns="http://www.w3.org/2000/svg"
><defs
     id="defs1" /><g
     id="layer1"
     transform="translate(-88.135721,-129.26022)"><path
       style="fill:#f26f5b;stroke:none"
       d="m 106.17374,135.49356 c -1.20767,1.77639 -2.46668,-0.15607 -3.20527,-0.98996 -1.06638,0.088 -2.21601,-0.0148 -3.230696,0.19184 0.184894,1.83514 -1.006404,1.08404 -2.036758,0.61112 -1.222998,0.6213 -3.610522,2.36827 -2.678711,3.86755 1.174723,1.55728 -1.950703,1.12575 -1.448077,2.88516 -0.42891,1.36242 0.06089,2.54699 1.555663,2.56305 0.770103,1.42999 -1.6878,2.95946 0.385225,4.08327 1.010867,1.64128 2.579209,1.4528 4.030885,0.61376 1.515119,0.0974 0.288188,3.04716 2.232599,1.86483 1.57227,0.23069 2.34785,-0.69402 2.94968,-1.85507 1.17822,-0.11115 1.76685,1.59237 2.6705,0.0371 1.27865,-0.88561 2.91702,-2.4751 1.15907,-3.72939 0.0994,-1.11879 2.24119,-0.34053 1.71269,-2.05128 0.28961,-1.35384 -0.17576,-2.46813 -1.58149,-2.62479 -0.56777,-1.30217 1.27966,-2.85624 -0.6378,-3.83306 -0.60178,-0.57222 -1.27282,-1.06538 -1.8775,-1.6341 z m 10.47697,13.71983 c 0.26289,-1.91019 -2.43369,-2.36694 -3.72526,-1.42469 0.0704,2.02616 -1.65157,1.04645 -2.41147,0.57679 l -2.96825,2.96824 c 1.53331,1.14892 0.61345,2.7103 -0.86942,2.72517 0.0404,1.17037 0.0807,2.34074 0.12107,3.51111 1.17055,-0.84361 1.69708,0.29499 1.71268,1.46139 -1.10479,1.07425 -0.78435,2.23686 0.46099,3.14439 0.88626,1.39242 2.07269,0.87908 3.12686,0.16999 1.73968,-0.19796 0.88738,2.89441 2.70104,1.8472 l 2.16358,-0.44904 c 0.30178,-0.39936 0.16915,-1.74496 0.87054,-1.27381 0.57282,0.0753 1.31012,0.92593 1.73034,0.28179 0.87229,-0.90963 1.74452,-1.81933 2.61682,-2.72896 -0.13075,-0.5421 -0.67179,-1.31738 -0.56066,-1.72201 1.11369,0.024 1.98241,-0.49039 1.84325,-1.78569 0.4703,-1.51137 -1.22631,-2.02919 -1.85819,-2.37945 -0.0529,-0.69591 -0.34066,-1.44633 0.24638,-1.99373 0.7166,-0.59951 -0.2892,-1.00994 -0.64517,-1.49172 l -1.85274,-1.85274 c -0.63373,0.26325 -1.20363,0.96852 -1.93024,0.58863 -0.25738,-0.0576 -0.51478,-0.11525 -0.77216,-0.17287 m -11.37082,-11.0798 c 2.12475,1.24304 2.68615,4.17374 1.45331,6.23373 -1.31021,2.69393 -4.93445,4.30451 -7.618136,2.59485 -2.194295,-1.12429 -3.454649,-3.91663 -2.370343,-6.22608 1.169611,-3.02607 5.117929,-4.65799 7.977869,-2.94073 l 0.27907,0.16014 z m 12.99226,14.19794 c -1.69311,-0.899 -3.88128,-1.63727 -5.72884,-0.7923 -0.55576,0.26378 -0.87072,1.16748 -0.13327,1.16648 -2.09963,1.74942 -1.82258,5.95885 1.03155,6.76319 2.54875,0.75088 5.8598,-1.55678 5.09135,-4.36334 -0.13186,-0.66636 -1.11466,-1.97437 0.1219,-1.032 1.92161,2.29422 -0.0273,6.06776 -2.79405,6.57303 -2.696,0.78146 -5.58274,-1.14175 -6.1971,-3.81336 -0.82919,-2.60135 0.68664,-5.6312 3.31731,-6.44105 1.79105,-0.61329 4.14167,-0.33591 5.4207,1.13933 0.13861,0.25924 0.0582,0.58837 -0.12955,0.80002 z m -16.96271,-13.96928 c 1.83533,0.86756 -1.491181,0.47981 -1.880209,1.55087 -1.925572,1.59798 -1.911218,5.08089 0.400697,6.32642 2.639012,1.84435 6.536332,-1.04545 5.808772,-4.08343 -0.31461,-1.62434 -1.97794,-2.27736 -2.95727,-3.41969 0.78993,0.45733 1.57986,0.91466 2.36979,1.37199 -0.38902,-1.47278 -2.42015,-1.9854 -3.74178,-1.74616 z m 1.24727,0.24945 c -0.85896,0.0127 0.83011,0.8492 -0.37733,0.15978 -0.04,-0.17983 0.34117,-0.17189 0.37733,-0.15978 z m 0.60283,2.14112 c 2.04129,1.17877 0.97615,4.69579 -1.32209,4.67281 -1.77641,0.0276 -3.071952,-2.07545 -2.130341,-3.62157 0.573101,-1.2788 2.267331,-1.96392 3.452431,-1.05124 z m 12.97149,12.97149 c 1.92654,1.1041 1.10684,4.19166 -0.91803,4.62067 -1.77895,0.49168 -3.61296,-1.50396 -2.77102,-3.21759 0.50227,-1.45427 2.33899,-2.42131 3.68905,-1.40308 z"
       id="path1" /></g></svg>
